<?xml version="1.0" encoding="UTF-8"?>
<svg id="Capa_2" data-name="Capa 2" xmlns="http://www.w3.org/2000/svg" viewBox="0 0 291.65 471.07">
  <defs>
    <style>
      .cls-1 {
        fill: #19212d;
      }
    </style>
  </defs>
  <g id="Capa_1-2" data-name="Capa 1">
    <g>
      <path class="cls-1" d="M83.19,362.94c.45,1.36,1.41,2.23,2.55,2.96,2.16,1.37,4.25,2.84,5.81,4.9,2.14,2.84,4.28,5.68,6.3,8.6,2.99,4.32,5.28,9,6.96,13.99,.71,2.08,2.14,3.44,4.39,3.55,2.29,.12,4.02-1.18,5.72-2.56,1.33-1.06,1.43-2.48,1.42-3.98,0-.87,.02-1.75,.03-2.61,.05-4.3-1.63-7.82-4.89-10.57-2-1.68-4.05-3.31-6.1-4.92-2.17-1.71-3.37-3.94-3.83-6.63-.08-.43-.18-.88-.26-1.3-1.42,.26-2.71,.61-4.02,.69-2.08,.12-4.16,.01-6.24,.08-2.83,.09-5.46-.48-7.84-2.19m18.71,.85c.48,.1,.79,.22,1.1,.23,1.6,.07,2.93,.7,4.22,1.64,3.31,2.41,6.7,4.7,10.06,7.06,.65,.46,1.27,.99,1.86,1.53,3.81,3.49,6.01,7.85,6.9,12.9,.66,3.79,.17,7.35-1.93,10.63-.6,.94-1.36,1.61-2.46,1.96-1.53,.49-3.03,1.08-4.53,1.67-4.46,1.75-8.69,3.91-12.35,7.06-1.51,1.3-1.59,1.81-.66,3.61,.87,1.7,2.46,2.41,4.12,3.01,1.57,.57,3.24,.92,4.73,1.65,8.42,4.1,17.3,6.08,26.63,6.05,5.72-.02,11.43-.17,17.13-.27,.6,0,1.2-.07,1.79-.18,7.58-1.34,14.8-3.77,21.67-7.24,1.58-.79,1.82-1.24,.91-2.82-.86-1.5-1.94-2.89-3.07-4.21-2.09-2.48-4.76-4.3-7.35-6.22-6.82-5.08-12.17-11.49-16.66-18.68-2-3.22-3.25-6.63-3.66-10.33-.96-8.68-.59-17.29,1.65-25.77,1.45-5.46,3.47-10.61,7.94-14.4,1.53-1.3,3.02-2.69,4.67-3.82,2.14-1.44,4.56-2.29,7.18-2.27,2.1,.01,3.41,1.07,3.83,2.89,.76,3.25-1.19,7.66-4.12,9.32-2.46,1.4-4.86,2.89-6.8,4.99-3.48,3.76-4.61,8.38-4.81,13.33-.19,4.96,.74,9.74,2.08,14.48,.72,2.51,1.89,4.68,3.52,6.7,6.5,8.05,13.89,15.12,22.37,21.05,2.87,2,5.9,3.73,9.17,5,1.07,.41,1.83,.31,2.73-.44,3.93-3.25,7.93-6.42,11.9-9.63,.39-.32,.75-.68,1.31-1.19-.53-.07-.78-.14-1.03-.13-3.55,.15-6.75-.85-9.6-2.99-.48-.36-1.03-.63-1.56-.93-6.72-3.78-13.46-7.54-20.17-11.35-1.46-.82-2.91-1.68-4.27-2.66-4.24-3.07-7.92-6.65-10.18-11.48-.95-2-1.6-4.09-1.69-6.65,.65,.56,1.11,.91,1.53,1.31,2.82,2.71,5.87,5.17,9.41,6.84,4.3,2.04,8.63,4.03,13.05,5.77,7.36,2.87,14.82,5.52,22.24,8.25,3.95,1.45,7.93,2.85,11.74,4.23,3.77-2.8,7.34-6.71,10.49-11.67,1.79-2.83,3.34-5.83,5.2-8.62,7.32-10.98,13.49-22.58,18.84-34.63,1.59-3.56,2.98-7.17,4.01-10.93,3.11-11.26,6.05-22.56,7.88-34.1,1.14-7.22,2.1-14.46,3.06-21.71,.8-5.99,1.15-12.02,.96-18.07-.27-8.05-.39-16.12-.85-24.15-.36-6.29-.95-12.58-1.75-18.83-1.47-11.32-3.88-22.46-6.68-33.52-4.93-19.45-12.07-37.95-22.85-54.97-6.75-10.66-14.22-20.7-23.48-29.32-5.76-5.36-11.95-10.2-18.36-14.76-13.92-9.93-29.06-16.89-46.27-18.74-8.08-.87-16.09-.51-23.94,1.66-3.87,1.06-7.62,2.53-11.45,3.79-16.12,5.25-30.2,13.81-42.01,26.04-2.34,2.41-4.71,4.79-7.01,7.25-12.92,13.76-23.71,28.91-31.03,46.46-6.65,15.97-12.04,32.3-15.15,49.33-1.56,8.58-3.05,17.17-4.25,25.8-.84,6.04-1.29,12.15-1.64,18.23-.48,8.26,.21,16.51,.65,24.76,.18,3.15,1.45,5.84,2.86,8.5,.93,1.76,2.48,2.53,4.5,2.47,2.01-.05,4.03,0,6.04,0,.19,0,.37,.09,.56,.13v2.08c.91-.27,1.7-.34,2.34-.71,1.4-.79,2.73-1.71,4.07-2.6,4.01-2.69,7.96-5.5,12.05-8.06,1.96-1.24,4.19-2.09,6.34-3.02,.89-.38,1.89-.58,3.13,.13-.69,.85-1.21,1.71-1.92,2.35-3.35,2.99-6.68,6.02-10.16,8.85-4.85,3.94-9.85,7.68-14.73,11.57-1.41,1.13-2.65,2.47-3.9,3.79-.67,.7-.51,1.38,.36,1.73,.53,.21,1.2,.32,1.75,.19,.98-.22,1.91-.6,2.83-1,4.67-2,8.66-5.1,12.69-8.12,4.13-3.11,8.31-6.14,12.93-8.53,.47-.25,.96-.52,1.46-.66,.27-.07,.71,.06,.89,.26,.17,.19,.2,.65,.08,.89-.24,.47-.58,.9-.95,1.28-5.57,5.92-11.14,11.83-16.74,17.73-3.95,4.15-8.19,7.95-13.24,10.76-.17,.09-.27,.28-.39,.41,.3,1.54,.73,3.04,.85,4.56,.46,6.16,.84,12.32,1.22,18.48,.17,2.75,.32,5.5,.4,8.25,.03,1.04,.57,1.41,1.5,1.48,1.31,.09,2.05-.47,2.21-2.03,.23-2.28,.25-4.56,.43-6.83,.11-1.21,.26-2.46,.98-3.69,1.75,1.5,3.24,2.96,4.91,4.18,1.67,1.21,2.54,2.7,2.45,4.72-.05,.98,.28,1.7,1.04,2.24,.87,.6,1.21,1.41,.99,2.44-.35,1.63,.04,3.18,.33,4.76,.35,1.98,.89,3.99,.81,5.96-.21,4.95,1.31,9.31,4.17,13.17,1.97,2.67,4.69,4.4,8.16,4.54,2.16,.08,2.89-.46,3.44-2.52,.11-.38,.17-.8,.17-1.19,0-3.46-.46-6.87-2.21-9.9-1.19-2.08-2.76-3.95-4.14-5.93-.35-.49-.72-1-.92-1.55-.34-.99-.17-7.48,.16-8.8,1.55,.78,2.7,1.97,3.82,3.21,1.98,2.23,3.22,4.93,4.84,7.38,2.85,4.31,4.96,8.86,6.27,13.86,1.07,4.08,1.29,8.22,1.13,12.36-.15,3.82-2.37,4.22-5.64,3.62-.19-.03-.37-.15-.56-.22-2.93-1.15-5.61-.42-8.22,.95,.04,3.03,.43,5.87,1.42,8.61,1.04,2.91,3.15,4.77,5.93,5.93,.8,.34,1.62,.61,2.5-.08-.15-.48-.22-.96-.44-1.34-.36-.64-.83-1.21-1.25-1.82-.49-.72-.74-1.62-.09-2.21,.44-.4,1.38-.59,1.99-.44,.94,.23,2.01,.62,2.64,1.3,3.03,3.26,5.86,6.68,6.48,11.35,.04,.33,.15,.66,.3,.96,1.36,2.72,3.03,5.22,5.34,7.25,2.82,2.49,6.33,3.77,9.65,5.31,1.28,.59,2.81,.84,4.33,.28,1.71-.63,2.34-1.56,2.04-3.37-.65-4.07-2.3-7.7-4.88-10.89-.93-1.15-1.93-2.24-2.83-3.4-2.98-3.9-5.86-7.87-8.9-11.71-2.03-2.57-2.52-5.56-2.78-8.66-.04-.56,.08-1.34,.44-1.67,.36-.32,1.13-.2,1.79-.28-.3-.32-.55-.63-.83-.91-3.74-3.65-5.49-8.51-7.87-12.97-.31-.58-.42-1.27-.57-1.92-1.03-4.58-.37-9.19-.51-13.93,1.29,.19,2.07,.88,2.57,1.71,.99,1.66,1.98,3.35,2.66,5.15,1.17,3.07,2.07,6.23,3.16,9.33,.56,1.58,1.19,3.15,1.99,4.61,2.07,3.79,5.3,5.79,9.66,5.76,1.94,0,3.44-1.68,3.14-3.6-.53-3.24-1.87-6.22-4.18-8.55-2.74-2.76-5.73-5.27-8.63-7.89-3.86-3.47-5.89-7.74-5.71-12.99,.04-1.21,.16-2.43,.03-3.63-.26-2.51,.68-4.57,2.14-6.5,.53-.7,.97-1.49,1.6-2.07,.87-.81,1.8-1.65,2.87-2.14,1.56-.72,3.26-1.07,5.01-.34-.1,1.25-.26,2.39-.29,3.52-.04,2.23-1.34,3.56-3.15,4.52-.5,.27-1.09,.4-1.67,.6-.11,2.53,.04,4.95,.85,7.25,.35,.97,.97,1.93,1.71,2.65,.91,.89,2.36,.27,2.6-.99,.09-.45,.04-.94,.04-1.41,0-2.96,0-5.92,0-8.87,0-.5,.1-1.02,.16-1.65,1.38,.28,2.6,.52,3.87,.78,0,1.12,.07,2.07,0,3-.15,1.66,.16,3.15,.89,4.65,1.08,2.24,1.4,4.65,.73,7.06-.45,1.61-1.14,3.15-1.82,4.67-.53,1.2-1.22,2.34-1.79,3.4,.13,.24,.14,.32,.19,.34,.63,.37,1.26,.76,1.9,1.11,4.11,2.26,7.72,5.08,10.5,8.92,2.61,3.59,2.52,7.2,.38,10.91-.49,.86-1.05,1.69-1.65,2.65m179.03-126.44c-.3,30.17-4.79,59.61-14.99,88.08-7.29,20.37-17.13,39.37-30.48,56.45-11.58,14.81-25.18,27.34-41.71,36.5-10.71,5.95-22.09,10-34.2,11.87-3.64,.56-7.34,.61-11,1.01-5.32,.57-10.61,.02-15.85-.59-9.1-1.07-17.87-3.5-26.32-7.05-13.27-5.57-25-13.5-35.54-23.25-15.84-14.64-27.9-32.04-37.43-51.29-9.69-19.55-16.22-40.14-20.23-61.56-1.71-9.1-2.93-18.27-3.68-27.51-.95-11.59-1.18-23.19-.68-34.81,.98-22.64,4.59-44.81,11.31-66.46,6.57-21.17,15.77-41.07,28.57-59.23,9.99-14.17,21.73-26.62,35.95-36.63,12.73-8.96,26.63-15.22,41.95-18.18,7.61-1.47,15.31-2.04,23.04-1.6,20.09,1.16,38.18,8.02,54.63,19.46,13.37,9.3,24.57,20.8,34.18,33.87,13.91,18.91,23.78,39.83,30.74,62.17,4.44,14.25,7.53,28.8,9.39,43.61,1.14,9.06,1.92,18.14,2.06,27.28,.04,2.61,.21,5.24,.32,7.85"/>
      <path class="cls-1" d="M205.47,435.62c1.62-1.28,3.18-2.33,4.52-3.62,1.89-1.83,2.03-3.52,.79-5.83-.26-.46-.54-.93-.86-1.35-1.49-2.03-2.94-2.5-5.22-1.4-1.84,.9-3.53,2.09-5.4,3.21,1.74,2.55,3.3,4.88,4.87,7.21,.35,.49,.71,.97,1.3,1.77m.75,1.23c2.31,3.39,4.46,6.55,6.65,9.79,1.11-.71,2.12-1.36,3.23-2.08,.3,.31,.59,.62,1.03,1.07-3.25,2.22-6.4,4.37-9.65,6.59-.3-.36-.54-.63-.95-1.11,.59-.43,1.1-.81,1.62-1.18,.47-.36,.96-.72,1.52-1.14-4.51-6.63-8.95-13.16-13.43-19.77-2.33,1.37-4.53,2.66-6.85,4.03,1.09,2.8,2.22,5.67,3.34,8.52,.81,2.06,1.68,4.11,2.43,6.19,.47,1.32,.85,2.68,1.16,4.05,.72,3.14-.52,5.52-3.07,7.28-2.47,1.71-5.25,2.73-8.24,2.95-2.26,.17-4.29-.62-5.65-2.48-.94-1.29-1.73-2.72-2.34-4.2-1.74-4.21-3.36-8.48-5.04-12.72-.32-.81-.66-1.61-1.04-2.52-1.17,.41-2.29,.8-3.5,1.22-.2-.39-.36-.74-.65-1.31,3.59-1.43,7.09-2.82,10.68-4.24,.25,.5,.41,.85,.66,1.34-1.17,.5-2.26,.98-3.37,1.46,.02,.24,0,.43,.06,.6,2.16,5.49,4.36,10.97,6.48,16.48,.74,1.9,2.14,2.84,4.02,3.26,1.98,.43,6.21-1.25,7.36-2.93,1.04-1.52,1.02-3.2,.57-4.84-.47-1.75-1.15-3.43-1.78-5.13-1.31-3.52-2.64-7.04-3.97-10.55-.19-.49-.41-.98-.68-1.61-.94,.31-1.8,.58-2.79,.9-.17-.44-.32-.86-.51-1.38,2.01-.79,3.96-1.49,5.86-2.33,1.27-.55,2.51-1.22,3.68-1.98,2.92-1.91,5.73-3.99,8.7-5.83,1.7-1.05,3.55-1.89,5.42-2.58,2.09-.76,4.14-.48,5.75,1.24,1.68,1.79,2.34,3.92,1.59,6.31-.35,1.12-.97,2.17-1.58,3.51,3.72-.79,5.77,1.62,7.92,3.85,.55,.58,1.1,1.18,1.71,1.71,1.5,1.28,2.16,1.32,3.95,.3,.18-.1,.36-.15,.61-.26,.22,.34,.42,.66,.77,1.22-1.32,.9-2.54,1.83-3.86,2.57-1.44,.82-2.86,.55-4.05-.62-.86-.85-1.65-1.76-2.5-2.61-1.08-1.09-2.15-2.22-3.3-3.23-1.24-1.08-2.67-1.19-4.09-.33-1.24,.76-2.44,1.61-3.84,2.52"/>
      <path class="cls-1" d="M184.35,23.39c2.91,1.46,5.72,2.47,8.63,.47,2.78-1.91,3.72-4.72,3.23-7.94-.54-3.56-3.44-4.62-6.51-5.74-1.8,4.44-3.56,8.76-5.35,13.2m-1.74,16.2c-4.29-1.73-8.58-3.48-12.86-5.22,.03-.12,.06-.24,.09-.35,.36,.02,.72,.04,1.07,.07,2.43,.24,3.62-.37,4.68-2.56,.73-1.51,1.35-3.08,1.99-4.62,1.75-4.29,3.49-8.58,5.21-12.88,.36-.93,.74-1.88,.92-2.87,.33-1.79-.17-3.32-1.88-4.27-.28-.16-.52-.36-.71-.81,.33,.05,.66,.05,.96,.16,4.04,1.63,8.1,3.2,12.1,4.93,1.53,.66,3.01,1.53,4.33,2.52,2.72,2.04,3.61,5.15,2.54,8.23-1.08,3.14-3.58,4.85-7.11,4.87h-1.8c1.69,2.46,1.33,5.14,1.62,7.7,.24,2.14,.33,4.29,.61,6.41,.2,1.46,.48,2.95,2.23,3.81-1.56,.04-4.14-.91-7.1-2.47-.16-2.97-.25-5.98-.49-8.99-.14-1.73-.46-3.45-.79-5.16-.41-2.14-1.8-3.36-4.01-3.89-.22,.38-.47,.75-.65,1.16-.85,2.04-1.69,4.09-2.49,6.15-.33,.81-.62,1.63-.85,2.47-.47,1.79-.02,3.31,1.53,4.44,.36,.27,.74,.51,1.1,.78-.08,.13-.15,.27-.23,.39"/>
      <path class="cls-1" d="M97.17,431.75c-1.29-.55-2.33-1.01-3.43-1.48,.14-.44,.25-.81,.42-1.41,1.81,.7,3.5,1.51,5.27,1.99,2.36,.64,3.68,1.95,4.23,4.41,.54,2.42,1.52,4.72,2.33,7.07,.21,.61,.48,1.21,.78,1.96,.72-.36,1.3-.63,1.87-.94,2.78-1.5,5.53-3.03,8.33-4.49,.54-.28,1.32-.51,1.84-.34,2.46,.86,4.87,1.86,7.38,2.85-.12,.46-.22,.83-.36,1.41-1.21-.41-2.32-.79-3.67-1.24-2.9,7.39-5.77,14.73-8.73,22.27,1.18,.54,2.31,1.05,3.55,1.64-.21,.43-.37,.77-.62,1.3-3.45-1.36-6.84-2.68-10.21-4,.09-1,.35-1.51,1.27-1.17,.74,.27,1.48,.56,2.4,.91,2.81-7.19,5.56-14.22,8.49-21.7-.82,.41-1.27,.59-1.67,.85-3.66,2.38-7.31,4.77-10.96,7.15-2.09,1.36-2.74,1.1-3.33-1.27-1.07-4.3-2.14-8.6-3.21-12.89-.09-.37-.24-.7-.52-1.54-2.94,7.48-5.69,14.5-8.48,21.64,1.06,.47,2.01,.91,3.04,1.37-.12,.43-.22,.81-.38,1.41-2.87-1.11-5.64-2.2-8.52-3.31,.22-.53,.36-.88,.55-1.34,1.22,.4,2.35,.78,3.62,1.19,2.91-7.44,5.79-14.8,8.73-22.3"/>
      <path class="cls-1" d="M160.56,1.89c3.25,.36,6.55,.45,9.76,1.14-4.01,1.03-4.67,1.84-5.1,6.23-.51,5.26-1.06,10.54-1.56,15.8-.38,4.05-2.31,6.11-6.48,7.18-4.15,1.05-8.28,.5-12.2-1.17-3.43-1.47-5.06-4.1-4.79-7.83,.36-5.15,.92-10.27,1.39-15.42,.09-1.01,.21-2,.22-3.01,0-2.4-.83-3.53-3.11-4.33-.24-.09-.46-.2-.67-.49,4.6,.04,9.16,.61,13.76,1.39-.34,.09-.66,.23-1.01,.27-2.31,.3-3.35,1.15-3.79,3.47-.33,1.76-.49,3.58-.69,5.37-.41,3.93-.66,7.89-1.21,11.8-.72,5.13,2.5,7.56,6.82,8.48,1.75,.37,3.63,.15,5.35-.51,2.04-.78,3.65-2.03,4.01-4.36,.36-2.25,.71-4.51,.96-6.76,.44-3.93,.83-7.87,1.16-11.81,.08-.98-.03-2.02-.3-2.98-.16-.56-.72-1.05-1.21-1.45-.38-.31-.94-.39-1.42-.58,.03-.15,.05-.29,.08-.43"/>
      <path class="cls-1" d="M224.68,421.13c1.3-1.39,2.5-2.55,3.58-3.83,2.51-3.01,2.37-5.2-.44-7.88-2.05-1.96-3.59-2.15-5.89-.42-1.65,1.24-3.13,2.72-4.8,4.2,2.53,2.66,4.93,5.18,7.55,7.94m9.23,9.62c1.78-1.88,3.5-3.48,4.96-5.29,1.52-1.88,1.42-3.78,0-5.72-.43-.59-.95-1.14-1.48-1.65-2.11-1.98-3.93-2.25-6.31-.57-1.89,1.33-3.59,2.96-5.47,4.53,2.78,2.93,5.4,5.67,8.29,8.7m-5.7,4.92c1-.74,1.91-1.42,2.97-2.21-5.69-5.94-11.15-11.64-16.72-17.46-.81,.71-1.5,1.32-2.18,1.93-.72,.65-1.16,.36-1.56-.49,.34-.37,.66-.79,1.04-1.14,2.76-2.65,5.48-5.34,8.33-7.9,1.18-1.05,2.58-1.93,3.99-2.66,2.25-1.16,4.53-1.21,6.57,.56,2.11,1.84,2.47,4.19,1.75,6.78-.18,.61-.46,1.2-.78,2.01,1.23-.49,2.2-.88,3.16-1.26,4.36-1.68,8.69,3.27,8.07,7.08-.38,2.34-1.43,4.37-3.05,6.02-3.15,3.2-6.43,6.29-9.62,9.46-.76,.75-1.23,.49-1.97-.72"/>
      <path class="cls-1" d="M77.33,431.06c1.52,.98,2.76,1.89,4.11,2.61,3.16,1.7,5.4,1.07,7.39-1.91,.22-.34,.41-.69,.6-1.05,.77-1.48,.59-2.87-.47-4.11-1.55-1.78-3.51-3.01-5.52-4.34-2.07,2.98-4.01,5.78-6.11,8.79m6.2,20.9c-.28,.37-.51,.68-.88,1.17-1.22-.84-2.44-1.54-3.51-2.41-1.58-1.27-1.89-2.59-1.09-4.48,.71-1.66,1.59-3.25,2.35-4.9,.38-.85,.68-1.73,1.01-2.61,.53-1.46,.07-2.67-1.06-3.6-1.18-.98-2.46-1.82-3.87-2.85-2.29,3.28-4.5,6.45-6.77,9.72,1.09,.82,2.11,1.57,3.19,2.37-.26,.37-.46,.69-.82,1.19-3.19-2.21-6.3-4.38-9.53-6.62,.28-.43,.47-.75,.77-1.23,1.04,.68,2.02,1.32,3.21,2.09,4.58-6.58,9.13-13.1,13.73-19.71-1.05-.79-1.99-1.51-3.04-2.29,.25-.39,.44-.71,.7-1.1,.29,.11,.54,.16,.74,.31,3.14,2.18,6.32,4.31,9.39,6.6,1.38,1.04,2.63,2.3,3.75,3.62,1.64,1.94,2.2,4.15,.73,6.49-1.48,2.36-3.59,3.54-6.43,3.21-.78-.09-1.56-.23-2.56-.37,1.78,2.6,1.17,5.06,.03,7.5-.46,.97-.95,1.92-1.37,2.91-1.04,2.43-.84,3.19,1.34,4.99"/>
      <path class="cls-1" d="M16.75,353c.75,1.49,1.33,2.84,2.07,4.09,1.97,3.31,4.17,3.93,7.6,2.22,2.44-1.22,3.18-2.63,2.39-5.24-.58-1.89-1.49-3.69-2.32-5.69-3.34,1.59-6.46,3.06-9.74,4.61m-1.41,.65c-3.66,1.73-7.09,3.35-10.68,5.04,.53,1.25,1.03,2.4,1.57,3.65-.45,.21-.85,.39-1.33,.62-1.64-3.48-3.23-6.87-4.9-10.39,.38-.26,.74-.49,1.21-.8,.6,1.14,1.15,2.19,1.8,3.43,7.23-3.41,14.4-6.79,21.72-10.24-.54-1.22-1-2.25-1.5-3.38,.38-.25,.74-.46,1.2-.75,.27,.43,.5,.75,.66,1.09,1.46,3.1,2.98,6.16,4.33,9.3,.73,1.71,1.29,3.53,1.71,5.34,.54,2.39,.05,4.57-2.13,6.03-2.18,1.47-4.5,1.71-6.83,.38-.92-.51-1.71-1.26-2.72-2.02-.05,.27-.12,.48-.12,.69,.07,1.98-.87,3.47-2.35,4.66-.9,.71-1.82,1.36-2.75,2.04-.37,.28-.77,.52-1.15,.8-2.19,1.62-2.39,2.24-1.49,5.01-.31,.18-.63,.36-1.02,.57-1.2-1.33-1.84-2.86-2.29-4.48-.37-1.38,.02-2.54,1.11-3.42,.94-.75,1.96-1.39,2.94-2.09,1.31-.94,2.66-1.82,3.89-2.85,1.32-1.1,1.69-2.55,.97-4.17-.56-1.28-1.16-2.55-1.86-4.07"/>
      <path class="cls-1" d="M245.26,381.23c-.78,1.23-1.38,2.19-2.03,3.22-.43-.25-.76-.43-1.29-.74,1.38-2.38,2.69-4.7,4.1-6.96,.23-.36,.9-.56,1.37-.6,5.29-.35,10.58-.64,15.87-.97,2.21-.13,4.41-.3,6.65-.44-.99-1.11-12.48-7.97-15.5-9.25-.63,.99-1.27,1.98-1.94,3.05-.42-.23-.76-.41-1.3-.7,1.58-2.72,3.12-5.35,4.72-8.12,.49,.28,.86,.48,1.32,.74-.6,1.09-1.15,2.08-1.81,3.29,7.39,4.33,14.78,8.64,22.17,12.95-.17,1.11-.73,1.53-1.77,1.59-5.28,.28-10.58,.58-15.86,.91-4.13,.26-8.26,.56-12.53,1.18,6.44,3.76,12.88,7.52,19.43,11.35,.63-.98,1.2-1.85,1.84-2.84,.41,.23,.8,.44,1.31,.72-1.53,2.62-3.01,5.15-4.46,7.64-1.1-.14-1.5-.54-.96-1.48,.44-.74,.86-1.5,1.4-2.44-6.93-4.04-13.8-8.05-20.74-12.1"/>
      <path class="cls-1" d="M11.16,376.62c.52-.3,.86-.48,1.28-.73,.74,1.03,1.43,2,2.2,3.09,6.74-4.31,13.4-8.56,20.15-12.87-.66-1.15-1.25-2.19-1.89-3.29,.37-.24,.69-.45,1.24-.81,3.88,6.09,7.75,12.12,11.72,18.33-2.05,1.46-4.05,2.88-6.13,4.37-.3-.47-.5-.79-.71-1.11,.74-.81,1.46-1.51,2.07-2.29,1.01-1.25,1.32-2.74,.56-4.15-1.43-2.64-3.03-5.18-4.63-7.9-3.16,2.02-6.08,3.88-9.16,5.86,.89,1.32,1.61,2.52,2.45,3.64,1.01,1.32,1.72,1.47,3.33,.9,.62-.23,1.23-.51,1.92-.8,.24,.31,.46,.61,.82,1.08-3.12,1.98-6.14,3.92-9.14,5.85-.74-.45-1.08-.87-.37-1.48,.16-.14,.32-.26,.46-.39,2.34-2.11,2.43-2.72,.74-5.48-.48-.79-1.02-1.55-1.6-2.44-3.31,2.13-6.51,4.17-9.9,6.34,1.65,2.42,3.14,4.71,4.75,6.92,1.42,1.95,3.48,2.11,5.63,1.59,.91-.22,1.77-.6,2.65-.95,.7-.28,1.16-.17,1.43,.91-2.54,1.5-5.16,3.04-7.87,4.63-4.02-6.3-7.96-12.46-12.01-18.8"/>
      <path class="cls-1" d="M113.31,27.02c1.56,3.08,.81,7.36-1.4,9.72-2.43,2.6-5.46,4.11-8.85,4.89-6.32,1.46-11.73-.74-15.33-6.17-2.88-4.34-4.07-9.1-2.93-14.21,1.3-5.84,7.34-10.95,13.48-11.76,.87-.12,1.74-.23,2.6-.33q1.84-.21,2.65-1.79c.99,.96,3.8,6.48,4.5,9.08-.8-.72-1.29-1.14-1.76-1.61-1.7-1.65-3.5-3.07-5.81-3.85-3.96-1.35-8.45,1.07-9.94,4.13-1.74,3.56-1.97,7.27-.87,10.98,.69,2.29,1.72,4.52,2.84,6.63,2.96,5.54,8.5,6.34,12.89,5.7,4.46-.64,7.93-4.84,7.48-9.24-.14-1.35-.03-1.36,.45-2.17"/>
      <path class="cls-1" d="M56.79,429.62c.97-.04,2.44-.64,3.81-1.53,3.89-2.52,6.99-5.82,9.35-9.79,.5-.86,.8-1.84,1.07-2.8,.37-1.26,.23-2.54-.35-3.72-1.11-2.25-2.83-3.88-5.18-4.8-1.22-.48-2.46-.55-3.73-.1-.62,.23-1.3,.37-1.86,.71-4.61,2.7-8.31,6.37-10.7,11.15-2.4,4.79,1.6,10.92,7.58,10.87m-11.03-9.87c.27-1.23,.37-2.53,.83-3.7,2.43-6.04,6.57-10.17,13.15-11.47,5.93-1.15,12.22,3.68,13.56,9.18,.61,2.52,.37,4.96-.63,7.28-1.96,4.49-5.21,7.78-9.69,9.76-5.53,2.43-10.81,.47-14.28-3.66-1.91-2.28-2.78-4.65-2.94-7.39"/>
      <path class="cls-1" d="M114.65,4.04c4.6-.66,9.21-1.31,13.8-1.97,.04,.11,.08,.21,.12,.31-.23,.16-.44,.36-.7,.46-2.33,.95-3.18,2.14-2.98,4.62,.22,2.46,.59,4.92,.95,7.37,.72,5.04,1.48,10.08,2.19,15.11,.12,.8,.11,1.61,.17,2.41,.25,3.36-1.3,5.65-4.25,7.09-2.15,1.06-4.4,1.7-6.79,1.31-.83-.14-1.71-.46-2.39-.94-1.05-.71-1.12-2.22-.34-2.99,.88-.85,2.15-.74,3,.3,.37,.46,.63,1.03,.97,1.52,.54,.8,1.15,1.58,2.25,1.43,1.12-.16,2.09-.77,2.39-1.89,.32-1.21,.62-2.53,.47-3.75-.85-6.91-1.83-13.81-2.78-20.71-.18-1.26-.38-2.51-.6-3.78-.68-3.98-1.6-4.91-5.44-5.5,0-.14-.02-.27-.03-.4"/>
      <path class="cls-1" d="M60.12,399.26c-1.99,1.75-3.88,3.4-5.79,5.07-.8-.36-1.05-.78-.53-1.43,.53-.69,1.11-1.34,1.61-2.06,.96-1.38,1.19-2.92,.24-4.33-1.64-2.43-3.41-4.76-5.25-7.29-3.13,2.45-6,4.71-8.97,7.03,.88,1.1,1.62,2.13,2.46,3.09,1.36,1.54,2.23,1.67,4.07,.72,.35-.19,.67-.54,1.03-.59,.41-.05,.86,.17,1.29,.27,.03,.16,.06,.32,.09,.48-2.87,2.26-5.75,4.53-8.87,6.99-.28-.34-.51-.65-.61-.77-.03-.36-.05-.42-.03-.47,.02-.06,.07-.12,.12-.17,3.08-3.11,3.11-3.62,.38-7.04-.36-.46-.78-.89-1.27-1.44-2.48,1.93-4.91,3.81-7.32,5.7-.41,.32-.78,.71-1.29,1.17,.74,1.02,1.44,1.97,2.37,3.25-.31,.24-.66,.51-1.17,.91-2.45-3.12-4.8-6.11-7.22-9.19,.36-.35,.68-.64,1.09-1.04,.84,.99,1.6,1.89,2.47,2.93,6.29-4.92,12.5-9.78,18.87-14.76-.72-.99-1.41-1.93-2.17-2.99,.35-.32,.66-.61,1.1-1.03,4.46,5.69,8.82,11.27,13.29,16.98"/>
      <path class="cls-1" d="M276.72,353.12c-2.04-.21-3.7-.37-5.35-.53-1.7-.16-3.39-.3-5.08-.44-.07,.13-.13,.27-.2,.39,2.35,2.48,4.69,4.97,7.24,7.67,1.19-2.49,2.25-4.69,3.39-7.09m3.65,14.45c.57-1.14,1.07-2.14,1.64-3.25,.45,.18,.85,.34,1.21,.48,0,.25,.04,.39,0,.5-1.1,2.37-2.25,4.72-3.34,7.09-.43,.95-.96,.97-1.78,.26,.43-1.03,.88-2.05,1.4-3.28-6.32-6.69-12.65-13.41-18.91-20.05,.1-1.23,.63-1.62,1.75-1.5,4.79,.52,9.59,.97,14.39,1.43,3.92,.37,7.85,.73,11.83,1.09,.6-1.16,1.14-2.23,1.73-3.36,.43,.2,.78,.35,1.38,.61-1.69,3.55-3.33,7.04-5.05,10.64-.47-.18-.87-.32-1.42-.53,.5-1.14,.96-2.16,1.51-3.4-2.77-.77-5.49-.57-8.21-1.03-1.32,2.74-2.56,5.32-3.92,8.15,1.8,2.04,3.67,4.09,5.82,6.16"/>
      <path class="cls-1" d="M249,400.04c-3.56-1.13-6.8-2.17-10.05-3.2-.08,.11-.16,.23-.24,.35,1.76,2.93,3.53,5.87,5.47,9.1,1.69-2.19,3.15-4.09,4.81-6.24m8.48,7.23c-.5-.4-.8-.64-1.17-.94,.75-1.05,1.45-2.01,2.28-3.17-2.7-.88-5.26-1.71-7.94-2.57-1.85,2.38-3.66,4.69-5.58,7.17,1.42,2.34,2.82,4.66,4.39,7.24,.7-.87,1.25-1.51,1.75-2.19,.57-.78,1.07-.63,1.77,.25-1.82,2.37-3.69,4.77-5.65,7.31-.42-.31-.76-.54-1.2-.86,.72-1.01,1.37-1.91,2.11-2.95-1.81-3.03-3.63-6.06-5.45-9.1-2.62-4.37-5.25-8.73-7.88-13.11-.25-.4-.53-.79-.69-1.22-.27-.79,.31-1.51,1.13-1.43,.46,.05,.9,.25,1.35,.39,7.78,2.47,15.57,4.96,23.35,7.44,.37,.12,.76,.19,1.19,.3,.74-.93,1.45-1.8,2.25-2.8,.37,.25,.73,.47,1.27,.83-2.43,3.15-4.78,6.19-7.28,9.43"/>
      <path class="cls-1" d="M137.34,458.71c-.93-3.64-1.8-7.02-2.66-10.39h-.41c-1.59,3.11-3.17,6.23-4.87,9.56,2.73,.29,5.14,.54,7.95,.83m-1.84-16.81c1.46-.26,1.76,.51,2.02,1.56,1.96,7.85,3.97,15.69,5.97,23.53,.16,.65,.36,1.3,.57,2.03,1.24,.2,2.43,.38,3.72,.58-.04,.44-.07,.82-.12,1.47-4.04-.4-7.98-.8-11.84-1.18-.19-1.13,.1-1.6,1.03-1.52,.92,.08,1.85,.16,2.97,.26-.73-2.89-1.4-5.51-2.08-8.21-3.06-.32-6.02-.63-9.15-.95-1.27,2.5-2.5,4.95-3.67,7.29,.99,1.31,3.37-.41,3.56,2.35-2.99-.29-5.81-.56-8.63-.85-.86-.09-1.23-.53-.68-1.58,.57,.05,1.23,.07,1.88,.16,1.58,.21,1.6,.23,2.35-1.24,3.21-6.31,6.41-12.62,9.61-18.94,.83-1.62,1.68-3.24,2.47-4.76"/>
      <path class="cls-1" d="M167.27,177.81c.05-4.11-.37-8.17-1.26-12.18-1.12-5.03-2.82-9.81-6.32-13.74-2.53-2.86-5.64-4.48-9.55-4.26-5.46,.31-9.72,2.77-12.92,7.14-2.17,2.98-3.46,6.35-4.28,9.91-1.56,6.75-1.63,13.58-.69,20.4,.57,4.21,1.7,8.28,3.9,11.97,2.46,4.12,5.89,6.96,10.71,7.8,5.26,.92,9.99-.14,13.8-4.17,1.87-1.99,3.16-4.32,4.12-6.85,1.92-5.17,2.46-10.55,2.48-16.01m-29.46-61.6c-4.6,.27-9.01,.78-13.42,.71-10.68-.15-20.8-2.77-30.34-7.61-2.54-1.3-4.79-3-6.34-5.44-.44-.69-.76-1.59-.79-2.41-.15-3.75,.92-7.18,3.18-10.16,1.17-1.54,2.39-3.11,3.84-4.38,3.49-3.07,6.93-3.3,10.88-.89,1.36,.84,2.71,1.77,3.89,2.84,4.57,4.13,9.98,6.77,15.72,8.74,2.91,1,5.91,1.75,8.89,2.48,1.08,.27,2.26,.19,3.39,.25,.27,.02,.53-.04,.8-.02,7.52,.59,14.67-1.21,21.68-3.58,5.52-1.86,10.94-4.02,16.42-6.01,2.4-.88,4.8-1.72,7.22-2.48,.96-.31,1.97-.39,2.96-.55,2.59-.43,4.14,2.51,3.37,4.41-.36,.87-.76,1.71-1.23,2.52-1.74,2.99-4.09,5.45-6.62,7.79-10.31,9.53-20.57,19.11-30.86,28.65-2.02,1.87-4.11,3.67-6.17,5.48-.3,.26-.63,.46-1.32,.97,.95,.17,1.37,.3,1.78,.3,2.15,.02,4.3,.03,6.45-.02,6.52-.15,12.66,1.35,18.38,4.41,4.32,2.32,8.56,4.8,11.9,8.51,5.8,6.43,9.58,13.75,10.81,22.48,.9,6.44,.1,12.59-1.83,18.63-.85,2.65-2.47,5.05-3.68,7.59-5.06,10.67-13.79,16.69-24.89,19.63-7.74,2.04-15.65,2.28-23.56,1.31-7.44-.91-13.93-4.22-19.93-8.53-6.56-4.71-9.33-11.69-11.22-19.19-.74-2.89-.91-5.83-.92-8.77,0-4.24,.05-8.47,.07-12.7,0-.18-.09-.35-.21-.81-1.95,1.68-3.78,3.21-5.56,4.8-6.04,5.34-12.29,10.4-19.23,14.57-.69,.41-1.36,.87-2.09,1.2-1.01,.45-1.6,.04-1.44-1.05,.1-.71,.34-1.46,.72-2.06,.79-1.24,1.66-2.43,2.6-3.57,18.61-22.32,37.25-44.63,55.87-66.95,.29-.35,.55-.72,.83-1.08"/>
      <path class="cls-1" d="M173.37,310.8c-2.18-.22-4.13-.28-6.03-.64-3.58-.69-7.2-.67-10.81-.83-1.24-.06-2.1,.5-2.57,1.55-.39,.89-.58,1.86-.9,2.93,.64,.11,1.02,.21,1.4,.23,4.01,.24,8.03,.43,12.05,.68,3.45,.22,6.78,.96,9.77,2.75,2.58,1.55,5.09,3.23,7.54,4.97,2.03,1.44,3.4,3.43,4.09,5.83,.44,1.54,.8,3.12,1.06,4.69,.36,2.07,.6,4.16,.97,6.74,.8-.82,1.29-1.23,1.67-1.73,1.2-1.61,2.38-3.23,3.52-4.88,.22-.31,.33-.74,.33-1.12,.02-2.47,.13-4.97-.06-7.43-.21-2.84-1.05-5.55-2.88-7.81-.81-1-1.13-2.01-1.09-3.29,.08-2.26-.5-2.86-2.71-3.13-.52-.07-1.06,0-1.44,0-.67,.8-1.22,1.46-1.56,1.85h-12.34v-1.34Zm-36.07,27.08c2.19-1.32,3.76-2.89,5.04-4.7,2.14-3.04,4.81-5.37,8.2-6.9,1.56-.71,3.14-1.08,4.9-.81,.27,1.41-.21,2.58-.87,3.67-.56,.91-1.25,1.75-1.94,2.56-5.07,6.06-9.03,12.78-10.48,20.58-1.05,5.7-.83,11.52,1.41,17.05,.2,.48,.44,1,.81,1.36,1.28,1.27,1.63,2.9,1.81,4.57,.19,1.67,.28,3.34,.41,5.02,.15,1.71,.48,3.3,2.14,4.32,.39,.24,.66,.84,.78,1.33,.27,1.06-.29,1.79-1.38,1.64-1.04-.16-2.1-.5-3-1.03-3.24-1.91-5.08-4.89-6.06-8.45-.19-.64-.43-1.32-.39-1.96,.14-2.04-.75-3.64-1.96-5.13-.62-.76-1.03-1.51-.71-2.56,.19-.62,.07-1.34,.07-2.01,0-6.38-.03-12.77,.02-19.15,.02-2.74,.21-5.48,.33-8.26-.04-.03-.15-.18-.24-.16-8.47,1.41-16.54-.28-24.41-3.26-1.75-.66-3.48-1.46-5.05-2.46-1.4-.89-2.62-2.08-3.79-3.27-1.01-1.01-1.21-2.39-1.1-3.76,.27-3.33,1.29-6.48,2.94-9.34,1.77-3.06,4.46-5.1,7.91-6.16,4.9-1.53,9.88-2.45,15.01-2.6,.28,0,.59,.07,.8-.05,.43-.24,1.04-.51,1.14-.89,.12-.41-.14-1.05-.43-1.42-.26-.32-.79-.48-1.22-.62-8.33-2.79-16.64-5.63-25.01-8.28-2.08-.65-4.35-.76-6.54-.95-1.87-.15-3.77-.1-5.64-.05-.68,.02-1.36,.31-2.34,.54,1.48,2.26,2.49,4.46,4.95,5.36,3.78,1.39,7.55,2.77,11.33,4.14,.12,.05,.26,.06,.38,.1,2.94,.95,3.41,2.27,1.61,5.2-3.66,0-7.48,.09-11.3-.05-1.15-.04-2.31-.66-3.43-1.08-2.8-1.07-5.2-2.79-7.34-4.85-2.01-1.93-2.69-4.27-1.72-6.98,.21-.56,.34-1.14,.53-1.82-1.73-.23-3.11,.4-4.39,1.24-1.18,.77-2.29,1.66-3.41,2.5-1.28,.98-2.53,1.99-3.85,2.93-4.53,3.21-7.38,7.73-9.65,12.67-.54,1.18-.24,1.73,1.1,1.93,3.11,.46,5.86-.06,7.94-2.73,1.58-2.04,2.81-4.25,3.78-6.63,.44-1.08,.93-2.17,1.76-3.18,.04,.34,.13,.69,.12,1.03-.08,2.55-.16,5.11-.3,7.65-.03,.5-.16,1.11-.46,1.48-3.13,3.71-3.84,8.17-4.09,12.8-.03,.53,0,1.07-.08,1.61-.19,1.54-1.21,2.14-2.54,1.33-.85-.5-1.52-1.3-2.23-2.01-2.13-2.14-4.18-4.36-6.38-6.43-1.88-1.76-4.12-2.99-6.63-3.69-2.18-.62-2.66-2.3-1.01-3.85,2.32-2.19,4.16-4.72,5.9-7.37,.44-.67,.82-1.38,1.16-2.11,.19-.39,.22-.87,.37-1.51-2.89,.48-5.09,1.62-6.58,3.99-1.61,2.56-4,3.49-6.87,2.4-4.24-1.61-7.81-4.14-10.24-8.08-1.2-1.93-1.51-4.01-.94-6.18,.55-2.1,1.55-4,3.06-5.61,5.21-5.52,10.4-11.05,15.62-16.57,.18-.19,.39-.36,.7-.62,1.93,1.39,3.49,.36,5.01-.86,1.77-1.41,3.5-2.88,5.33-4.21,.54-.39,1.37-.59,2.05-.55,1.12,.07,2.23,.39,3.66,.68-.6,.54-.95,.9-1.33,1.2-5.13,4.12-10.44,8.03-15.33,12.41-3.48,3.12-6.44,6.83-9.54,10.35-.78,.89-1.34,2.02-1.81,3.12-.31,.71-.42,1.57-.37,2.35,.1,1.68,1.44,2.57,3.07,2.16,3.8-.97,7.47-2.35,10.63-4.65,3.99-2.93,7.89-6.03,11.59-9.33,2.19-1.94,3.94-4.38,5.83-6.64,.8-.96,1.59-1.79,2.98-1.8,.54,.91,.33,1.75-.05,2.53-.67,1.39-1.42,2.74-2.14,4.1-.67,1.23-1.42,2.43-2,3.72-.33,.69-.38,1.51-.61,2.5,1.47,.17,2.7,.38,3.94,.45,4.22,.21,8.5,.56,12.62-.58,3.12-.86,6.17-.99,9.32-.54,.33,.05,.67,.04,1.01,.02,.19-.01,.38-.08,.57-.12,.32-1.14-.26-1.69-1.17-2.22-2.55-1.47-5.13-2.94-7.55-4.6-2.63-1.81-4.72-4.26-6.21-7.06-1.53-2.91-1.79-6.14-1.34-9.41,.17-1.16,.96-1.76,2.08-1.79,1.47-.04,2.95,.05,4.43,.06,1.4,0,2.81,.08,4.2-.09,.98-.12,1.82-.01,2.71,.39,7.67,3.56,14.75,8,20.8,13.94,.86,.84,1.77,1.37,2.93,1.58,.99,.19,1.98,.35,2.67,1.32-.41,1.03-1.32,1.3-2.21,1.51-1.24,.3-2.5,.47-3.75,.75-.93,.21-1.7-.09-2.45-.58-3.16-2.03-6.32-4.08-9.51-6.06-1.81-1.12-3.68-2.2-5.59-3.18-.75-.38-1.66-.59-2.5-.63-1.24-.06-1.82,.73-1.26,1.81,.73,1.42,1.58,2.83,2.65,4,2.87,3.15,6.55,5.07,10.55,6.41,3.62,1.21,7.28,2.35,10.88,3.59,2.61,.9,5.11,2.06,7.21,3.91,.29,.26,.51,.59,.86,1.01-.71,.49-1.33,.25-1.94,.11-1.17-.25-2.36-.5-3.53-.74-.34-.07-.67-.14-1-.13-.91,.03-1.5,.52-1.82,1.35-.31,.78,.15,1.32,.66,1.75,1.9,1.59,4.11,2.54,6.56,2.84,1.13,.14,2.28,.12,3.42,.11,2.8-.02,4.42,1.47,4.54,4.2,.1,2.4,.59,2.9,2.94,2.95,2.35,.05,4.5-.65,6.56-1.7,5.62-2.85,11.27-5.66,16.85-8.58,4.66-2.44,9.34-1.86,14.05-.37,.61,.2,1.16,.67,1.65,1.12,.67,.62,.79,1.44,.21,2.17-.58,.73-1.21,1.44-1.94,2.01-1.37,1.07-2.82,2.04-4.37,3.15,.36,.71,.68,1.33,1.04,2.02,.6-.25,1.03-.4,1.44-.6,5.29-2.51,10.82-2.89,16.51-1.85,.52,.1,1.05,.19,1.59,.29,3.64,.68,5.96,2.95,6.72,6.57,.15,.65,.26,1.31,.42,2.18,.66,.07,1.37,.21,2.08,.23,2.14,.06,2.82-.34,3.37-2.37,.87-3.2,2.79-5.34,5.78-6.76,3.46-1.64,6.79-3.51,10.19-5.25,.38-.2,.85-.24,1.57-.42,0,.92,.2,1.68-.03,2.29-2.24,6.19-5.86,11.16-12.42,13.28-1.7,.55-3.55,.63-5.32,1-2.68,.55-3.28,1.73-2.47,4.36,.38,1.25,.67,2.59,.71,3.9,.11,3.96,.1,7.93,.08,11.9,0,.85-.11,1.78-.48,2.52-1.9,3.78-3.85,7.51-6.48,10.87-3.2,4.13-7.47,6.06-12.5,6.34-3.88,.21-7.79,.04-11.93,.04,.82-1.84,1.82-3.38,2.87-4.92,2.63-3.86,4.61-8.05,5.26-12.72,.3-2.18,.17-4.42,.14-6.63,0-.49-.29-1.03-.57-1.46-2.05-3.08-4.9-4.9-8.61-5.28-.67-.07-1.34-.11-2.01-.12-10.2-.1-20.42-.28-30.63-.24-2.85,.01-4.87-.72-5.67-3.67-.6-.04-1.13-.11-1.66-.12-3.97,0-7.94-.03-11.9,.02-.98,.02-2.03,.16-2.93,.53-1.61,.66-2.02,1.97-1.13,3.44,1.39,2.31,3.4,4.1,5.93,4.92,3.69,1.19,7.49,2.02,11.27,2.96,1.89,.46,3.14,1.71,4.16,3.26,.64,.98,1.29,1.94,1.94,2.93"/>
      <path class="cls-1" d="M224.69,257.44c.46-3.41-.88-6.47-3.58-7.78-2.74-1.32-5.74-1.77-8.73-2.08-1.25-.13-1.68,.4-1.67,1.69,0,2.58,1.25,4.5,3.4,5.79,3.26,1.98,6.92,2.21,10.58,2.39m-1.59,5.58c-1.28,1.38-1.09,2.43-.11,3.7,2.96,3.83,5.6,7.87,7.59,12.3,1.27,2.83,2.31,5.74,2.32,8.88,0,3.7-.09,7.39-.03,11.08,.06,3.11-.65,5.98-2.14,8.7-1.64,3-3.32,5.97-4.92,9-.62,1.18-1.15,2.44-1.54,3.71-.37,1.26,.37,1.94,1.66,1.63,.44-.11,.86-.36,1.27-.58,3.17-1.71,5.47-4.3,7.27-7.35,4.56-7.79,5.82-16.27,4.61-25.05-.9-6.57-3.39-12.7-6.51-18.51-.94-1.75-2.25-3.34-3.6-4.81-1.54-1.67-3.6-2.48-5.88-2.68m-42.38,15.8c2.2,0,4.41-.03,6.61,.03,.39,0,.81,.32,1.17,.57,1.05,.69,1.98,1.65,3.13,2.09,3.06,1.18,6.13,2.45,9.32,3.13,2.52,.54,5.21,.36,7.82,.34,1.94-.03,3.87-.3,5.81-.55,.76-.1,1.48-.44,2.49-.77-8.4-11.78-16.63-23.33-24.86-34.87-.13,.04-.27,.09-.39,.14,.29,7.18,.58,14.36,.88,21.54-1.57,.27-2.67-.22-3.52-1.11-.76-.83-1.56-1.74-1.93-2.78-1.02-2.76-1.97-5.56-2.62-8.43-.35-1.52-.04-3.2,0-4.81,.19-5.77,.38-11.53,.58-17.3,.04-1.07,.12-2.12,.18-3.19,1.96-.61,3.74-.09,5.47,.28,6.53,1.37,12.73,3.76,18.8,6.43,6.32,2.77,12.66,5.56,18.75,8.77,7.64,4.03,13.2,10.09,15.65,18.57,.68,2.36,1.13,4.84,1.29,7.3,.56,8.52,.18,17.04-.54,25.54-.28,3.15-.53,6.3-1.51,9.31-2.24,6.95-6.46,12.49-12.54,16.49-2.85,1.87-5.92,3.44-8.97,4.96-1.16,.57-2.56,.76-3.88,.91-2.85,.32-5.7,.75-8.61,.25-4-.68-5.09-3.08-2.72-6.39,.5-.71,1.14-1.32,1.76-1.93,5.05-4.92,10.11-9.84,15.19-14.73,.9-.86,1.5-1.82,1.86-3.03,.72-2.44,1.61-4.84,1.55-7.44-.04-2.01-.34-2.31-2.29-2.5-7.81-.8-15.61-1.69-23.05-4.3-4.17-1.47-8.28-3.12-12.31-4.91-2.9-1.29-5.43-3.2-7.58-5.57-.43-.48-.83-1-1.24-1.49,.09-.18,.18-.35,.27-.52"/>
      <path class="cls-1" d="M145.48,273.82c.12,.52,.15,.78,.23,1.03,1.18,3.63,3.22,6.78,5.64,9.67,1.13,1.37,2.8,1.93,4.54,1.57,3.76-.77,5.01-2.81,2.55-5.88-3.23-4.04-7.55-6.01-12.96-6.39m-45.89-48.15c-1.31,11.1,1.36,21.18,7.59,30.2,4.37,6.32,10.51,10.26,18.27,11.34,1.59,.22,3.18,.35,5.04,.54,.03-7.84-.08-15.46-.36-23.03,2.93-1.02,4.22-.64,5.37,1.91,1.41,3.11,2.61,6.32,3.83,9.5,.77,2,1.33,4.09,2.16,6.06,.36,.88,1.01,1.86,1.79,2.32,1.36,.8,2.9,1.56,4.43,1.74,10.24,1.24,18.02,7.98,19.94,18.87,.16,.93,.2,1.89,.5,2.76,.33,.95-.02,1.6-.64,2.15-.75,.66-1.55,1.3-2.42,1.78-4.21,2.35-8.76,3.66-13.55,4.18-.46,.06-.95,.06-1.4-.03-2.53-.47-2.7-.85-2.72-2.88-.03-2.9-.76-5.71-1.9-8.39-1.42-3.34-3.11-6.55-5.26-9.48-.78-1.05-1.72-1.84-3.24-2-.04,.73-.08,1.37-.1,2.02-.07,2.95-.1,5.91-.22,8.86-.03,.92,.14,1.67,.73,2.41,2.08,2.63,4.1,5.31,6.14,7.99,.39,.51,.76,1.05,1.34,1.86h-7.37c-1.03-3.35-3.78-4.99-7.17-6.04,.51-6.09-.43-12.16,1.1-18.08-.19-.08-.36-.19-.39-.15-2.16,1.87-4.69,2.28-7.47,2.38-4.01,.15-7.51-1.01-10.86-3.03-6.81-4.11-12.72-9.19-17.21-15.8-.64-.95-1.18-1.95-1.74-2.95-.88-1.55-1.25-3.18-1.3-5-.09-3.88-.51-7.76-.57-11.65-.03-1.92,.38-3.85,.69-5.77,.12-.71,.44-1.41,.79-2.06,.94-1.78,2.25-3,4.49-2.62,.58,.09,1.19,.07,1.7,.1"/>
      <path class="cls-1" d="M88.36,253.14c-4.07,.51-6.9-.92-9.12-3.77-1.3-1.68-1.52-1.72-3.55-.56-.03,2.8,.82,5.49,2.57,7.59,2.12,2.53,1.4,5.24,1.55,8.18-1.85,.06-3.52,.17-5.18,.12-.47,0-.99-.38-1.41-.7-4.37-3.24-7.4-7.52-9.48-12.51-.33-.77-.39-1.7-.4-2.55-.07-4.43,.03-8.86-.14-13.29-.1-2.53,.97-4.37,2.69-5.99,2.93-2.78,6.46-3.25,10.27-2.74,.9,.12,1.11,.66,1.07,1.39-.04,1.01-.14,2.01-.24,3.01-.1,1.01,.22,1.83,.95,2.54,1.11,1.07,2.16,2.21,3.3,3.24,3.48,3.11,5.5,7.06,6.58,11.51,.35,1.41,.36,2.9,.53,4.53"/>
      <path class="cls-1" d="M125.08,261.43c-3.81,.37-6.11-1.92-8.41-4.37-2.5-2.68-1.85-5.98-1.79-9.24-.84-.21-1.53-.38-2.45-.61v3.21h-4.25c-.06-.39-.17-.84-.18-1.28,0-3.48-.04-6.97,.02-10.46,0-.61,.37-1.21,.53-1.83,.33-1.28,.62-2.57,.93-3.85,.23-.98,.31-2.01,.7-2.91,.97-2.17,2.89-2.63,4.73-1.16,1.78,1.42,2.97,3.19,3.24,5.57,.12,1.09,.6,2.18,1.08,3.18,.49,1.03,1.19,1.94,1.8,2.9,1.14,1.83,1.59,3.75,1.18,5.95-.35,1.88-.41,3.74,.6,5.64,1.06,1.98,1.55,4.25,2.27,6.4,.31,.89,.65,1.78-.02,2.87"/>
    </g>
  </g>
</svg>