<?xml version="1.0" encoding="UTF-8"?><svg id="Lockup" xmlns="http://www.w3.org/2000/svg" viewBox="0 0 271.55 72.86"><defs><style>.cls-1{fill:#7e072c;}.cls-2{fill:#59595c;}</style></defs><path class="cls-1" d="M13.62,53.25c1.81.07,3.5.31,5.06.66v-19.82c-5.4.06-7.38.71-8.97,3.06-.32-.13-.52-.19-.76-.28.51-5.6,3.72-10.33,9.73-10.33,0,0,0-2.11,0-2.5,0-7.77,4.8-10.64,5.82-11.26,1.01-.62,18.48-10.84,18.48-10.84,0,0,6.73,4.34,9.63,6.17,1.83,1.15,2.56,1.83,4.48.87.5-.25,1.31-.83,1.84-1.22V0H0v44.32c0,3.37,1.95,7.03,4.86,10.58,2.21-1.08,5.04-1.79,8.76-1.65Z"/><path class="cls-1" d="M29.89,16.31c0-.89.16-2.28.37-3.24l-4.56,2.68s0,30.51,0,33.36-1.75,5.41-2.32,6.29c2.81,1.02,5.55,2.9,6.51,3.65,0,0,0-41.84,0-42.73Z"/><path class="cls-1" d="M53.92,14.94c-1.8,1.86-4.76,1.86-7.37.27-1.2-.73-4.58-2.93-7.25-4.67v16h13.74s-1.83,8.47-1.83,8.47c0,0-2.32-.92-5.21-.92-1.78,0-4.72,0-6.7,0,0,0,0,9.54,0,13.02,0,4.06-.3,5.86-1.51,7.38-1.05,1.31-16.49,11.09-16.49,11.09,0,0-6.49-6.86-13.55-7.48,7.95,8.05,19.45,14.76,21.62,14.76.03,0,.06-.02.09-.03.03.01.06.03.09.03,3.37,0,29.37-16.68,29.37-28.54V9.85c-1.63,1.66-4.13,4.19-4.99,5.09Z"/><path class="cls-1" d="M25.71,49.1c0-2.85,0-33.36,0-33.36l4.56-2.68c-.21.97-.37,2.35-.37,3.24s0,42.73,0,42.73c-.96-.75-3.71-2.62-6.51-3.65.57-.88,2.32-3.55,2.32-6.29Z"/><path class="cls-1" d="M90.79,19.88c-1.06-.58-2.52-.75-5.31-.75h-5.42v6.06h4.39c1.91,0,3.24-.1,3.99-.37v4.87c-.75-.31-2.08-.37-3.99-.37h-4.39v5.18c0,2.79.14,4.26.75,5.31h-6.85c.61-1.4.75-3.58.75-7.02v-11.48c0-3.44-.14-5.62-.75-6.98h16.83v5.55ZM96.41,27.03c0-7.97,5.38-13.25,12.91-13.25s12.98,5.28,12.98,13.25-5.38,13.29-12.98,13.29-12.91-5.28-12.91-13.29ZM116.79,27.03c0-5.11-3.07-8.28-7.43-8.28s-7.39,3.17-7.39,8.28,3,8.31,7.39,8.31,7.43-3.17,7.43-8.31ZM130.19,32.79v-11.48c0-3.44-.14-5.62-.75-6.98h11.31c5.55,0,9.33,2.14,9.33,7.55,0,3.41-1.67,6.22-4.43,7.52l2.9,6.83c1.06,2.38,1.64,3.31,2.35,3.58h-7.12c.41-.61.24-.97-.26-2.4s-2.77-7.99-2.77-7.99h-5.25v5.08c0,2.79.17,4.26.75,5.31h-6.81c.61-1.4.75-3.58.75-7.02ZM141.01,25.13c2.96,0,3.77-1,3.77-3.13s-.77-3.01-3.77-3.01h-5.5v6.14h5.5ZM179.47,27.03c0,7.87-4.29,12.77-12.47,12.77h-9.23c.61-1.4.75-3.58.75-7.02v-11.48c0-3.44-.14-5.62-.75-6.98h9.23c8.18,0,12.47,4.26,12.47,12.71ZM174.12,27.03c0-5.31-2.62-7.94-7.12-7.94h-3.13v15.94h3.13c4.5,0,7.12-2.66,7.12-8.01ZM208.39,32.79c0,3.44.14,5.66.78,7.02h-6.85c.58-1.06.75-2.52.75-5.31v-5.23h-10.32v5.23c0,2.79.17,4.26.75,5.31h-6.85c.61-1.06.75-2.52.75-5.31v-13.18c0-3.44-.14-5.62-.75-6.98h6.85c-.58,1.06-.75,2.52-.75,5.31v5.49h10.32v-5.49c0-2.79-.17-4.26-.75-5.31h6.85c-.65,1.36-.78,3.54-.78,6.98v11.48ZM232.14,39.81c.48-.61.48-1.33-.03-3.2l-.51-1.81h-8.48l-.55,1.94c-.48,1.77-.48,2.49-.03,3.07h-7.09c.65-.37.92-1.23,1.43-2.79l7.29-22.69h6.37l7.29,22.72c.51,1.57.78,2.42,1.43,2.76h-7.12ZM230.44,30.68l-3.03-10.63h-.1l-3.03,10.63h6.17ZM270.8,32.79c0,3.44.14,5.66.75,7.02h-6.85c.58-1.06.75-2.52.75-5.31l.03-10.8h-.1l-6.61,11.01h-.44l-6.64-11.01h-.1l.03,10.8c0,2.79.17,4.26.75,5.31h-6.85c.55-1.16.75-2.86.75-5.55v-12.95c0-3.44-.14-5.62-.75-6.98h5.62l7.32,11.54h.14l7.36-11.54h5.59c-.61,1.36-.75,3.54-.75,6.98v11.48Z"/><path class="cls-2" d="M75.07,56.55v-6.04h1.7v5.76c0,1.62.94,2.42,2.82,2.42s2.8-.8,2.8-2.42v-5.76h1.62v6.04c0,2.34-1.61,3.66-4.47,3.66s-4.47-1.32-4.47-3.66Z"/><path class="cls-2" d="M91.41,52.88l-.1,1.56c-.22-.04-.53-.07-.78-.07-1.15,0-1.98.41-2.68,1.3v4.37h-1.62v-7.05h1.62v1.5c.71-1.09,1.64-1.67,2.98-1.67.2,0,.41.01.57.06Z"/><path class="cls-2" d="M100.44,56.52c0,2.18-1.34,3.68-3.3,3.68-1.13,0-2.06-.52-2.72-1.5v1.33h-1.62v-9.95h1.62v4.23c.66-.98,1.58-1.5,2.72-1.5,1.96,0,3.3,1.5,3.3,3.7ZM98.79,56.52c0-1.4-.81-2.3-2.07-2.3-.9,0-1.75.45-2.3,1.21v2.17c.55.77,1.4,1.21,2.3,1.21,1.26,0,2.07-.9,2.07-2.28Z"/><path class="cls-2" d="M109.01,56.08v3.95h-1.62v-1.33c-.7.95-1.82,1.5-3.1,1.5-1.61,0-2.61-.84-2.61-2.23s1.04-2.23,2.82-2.23c1.02,0,2.11.27,2.88.7v-.25c0-1.36-.71-1.99-2.26-1.99-.92,0-1.74.22-2.48.7l-.59-1.23c.92-.57,1.96-.85,3.29-.85,2.54,0,3.66,1.01,3.66,3.26ZM107.39,57.53c-.66-.35-1.6-.57-2.45-.57-1.05,0-1.58.34-1.58.98s.49.97,1.39.97c1.05,0,2.03-.45,2.65-1.22v-.15Z"/><path class="cls-2" d="M118.2,55.5v4.54h-1.62v-4.22c0-1.07-.55-1.6-1.58-1.6-.95,0-1.72.43-2.31,1.21v4.61h-1.62v-7.05h1.62v1.33c.74-1,1.71-1.5,2.89-1.5,1.65,0,2.63.99,2.63,2.68Z"/><path class="cls-2" d="M132.82,58.58v1.46h-8.17v-9.53h1.7v8.07h6.47Z"/><path class="cls-2" d="M141.39,56.08v3.95h-1.62v-1.33c-.7.95-1.82,1.5-3.1,1.5-1.61,0-2.61-.84-2.61-2.23s1.04-2.23,2.82-2.23c1.02,0,2.11.27,2.88.7v-.25c0-1.36-.71-1.99-2.26-1.99-.92,0-1.74.22-2.48.7l-.59-1.23c.92-.57,1.96-.85,3.29-.85,2.54,0,3.66,1.01,3.66,3.26ZM139.76,57.53c-.66-.35-1.6-.57-2.45-.57-1.05,0-1.58.34-1.58.98s.49.97,1.39.97c1.05,0,2.03-.45,2.65-1.22v-.15Z"/><path class="cls-2" d="M154.38,52.99l-2.55,7.05h-1.61l-1.82-5.04-1.81,5.04h-1.62l-2.55-7.05h1.72l1.72,5.04,1.84-5.04h1.46l1.85,5.04,1.72-5.04h1.65Z"/><path class="cls-2" d="M159.7,55.3c0-3.03,2.07-4.96,5.32-4.96,1.33,0,2.49.32,3.5,1l-.54,1.39c-.95-.6-1.89-.87-2.89-.87-2.25,0-3.65,1.36-3.65,3.42s1.44,3.42,3.77,3.42c1.12,0,2.12-.31,3.04-.94l.62,1.4c-.91.67-2.27,1.05-3.75,1.05-3.35,0-5.41-1.89-5.41-4.9Z"/><path class="cls-2" d="M171.5,57.01c.21,1.16,1.18,1.81,2.75,1.81.94,0,1.72-.24,2.52-.78l.55,1.27c-.88.6-1.93.9-3.18.9-2.69,0-4.31-1.4-4.31-3.68s1.6-3.7,3.98-3.7,3.87,1.46,3.87,3.7c0,.15,0,.32-.01.49h-6.15ZM171.55,55.8h4.52c-.25-1.01-1.08-1.62-2.25-1.62s-2,.62-2.27,1.62Z"/><path class="cls-2" d="M186.54,55.5v4.54h-1.62v-4.22c0-1.07-.55-1.6-1.58-1.6-.95,0-1.72.43-2.31,1.21v4.61h-1.62v-7.05h1.62v1.33c.74-1,1.71-1.5,2.88-1.5,1.65,0,2.63.99,2.63,2.68Z"/><path class="cls-2" d="M194.1,59.77c-.59.29-1.23.43-1.97.43-1.68,0-2.51-.71-2.51-2.18v-3.75h-1.85v-1.27h1.85v-2.48h1.62v2.48h2.66v1.27h-2.66v3.49c0,.76.32,1.05,1.13,1.05.49,0,.94-.11,1.37-.34l.35,1.3Z"/><path class="cls-2" d="M196.65,57.01c.21,1.16,1.18,1.81,2.75,1.81.94,0,1.72-.24,2.52-.78l.54,1.27c-.88.6-1.93.9-3.18.9-2.69,0-4.31-1.4-4.31-3.68s1.6-3.7,3.98-3.7,3.87,1.46,3.87,3.7c0,.15,0,.32-.02.49h-6.15ZM196.69,55.8h4.53c-.25-1.01-1.08-1.62-2.26-1.62s-2,.62-2.27,1.62Z"/><path class="cls-2" d="M209.72,52.88l-.1,1.56c-.22-.04-.53-.07-.78-.07-1.15,0-1.98.41-2.68,1.3v4.37h-1.62v-7.05h1.62v1.5c.71-1.09,1.64-1.67,2.98-1.67.2,0,.41.01.57.06Z"/></svg>